<?xml version="1.0" encoding="utf-8"?>
<!-- Generator: Adobe Illustrator 26.0.0, SVG Export Plug-In . SVG Version: 6.00 Build 0)  -->
<svg version="1.1" id="Layer_1" xmlns="http://www.w3.org/2000/svg" xmlns:xlink="http://www.w3.org/1999/xlink" x="0px" y="0px"
	 viewBox="0 0 500 500" style="enable-background:new 0 0 500 500;" xml:space="preserve">
<style type="text/css">
	.st0{fill:none;stroke:#134767;stroke-width:5;stroke-linecap:square;stroke-miterlimit:10;}
	.st1{fill:none;stroke:#134767;stroke-width:4.9611;stroke-miterlimit:10;}
	.st2{fill:none;stroke:#134767;stroke-width:4.9961;stroke-miterlimit:10;}
	.st3{fill:none;stroke:#134767;stroke-width:5.031;stroke-linecap:square;stroke-miterlimit:10;}
	.st4{fill:none;stroke:#134767;stroke-width:5.031;stroke-linecap:round;stroke-miterlimit:10;}
	.st5{fill:none;stroke:#6D6E71;stroke-width:4.8335;stroke-miterlimit:10;}
	.st6{fill:none;stroke:#134767;stroke-width:5.0633;stroke-linecap:square;stroke-miterlimit:10;}
	.st7{fill:none;stroke:#134767;stroke-width:5.2377;stroke-linecap:round;stroke-miterlimit:10;}
	.st8{fill:none;stroke:#134767;stroke-width:5.0633;stroke-miterlimit:10;}
	.st9{fill:none;stroke:#134767;stroke-width:5;stroke-miterlimit:10;}
	.st10{fill:none;stroke:#134767;stroke-width:5;stroke-linecap:round;stroke-miterlimit:10;}
	.st11{fill:none;stroke:#134767;stroke-width:5.552;stroke-linecap:square;stroke-miterlimit:10;}
	.st12{fill:none;stroke:#134767;stroke-width:5;stroke-linecap:round;stroke-linejoin:round;stroke-miterlimit:10;}
	.st13{fill:none;stroke:#134767;stroke-width:4.7815;stroke-linecap:round;stroke-linejoin:round;stroke-miterlimit:10;}
</style>
<line class="st0" x1="-850" y1="229.15" x2="-850" y2="402.84"/>
<g>
	<path class="st1" d="M-770.21-352.96c0,38.85-42.99,70.34-96.02,70.34s-96.02-31.49-96.02-70.34s42.99-101.21,96.02-101.21
		S-770.21-391.81-770.21-352.96z"/>
	<path class="st2" d="M-959.74-373.26l-11.51-7.91c-18.4-12.65-22.92-37.6-10.09-55.74l0,0c12.83-18.14,38.15-22.59,56.56-9.94
		l11.51,7.91"/>
	<path class="st2" d="M-773.4-373.26l11.51-7.91c18.4-12.65,22.92-37.6,10.09-55.74l0,0c-12.83-18.14-38.15-22.59-56.56-9.94
		l-11.51,7.91"/>
	<line class="st3" x1="-866.62" y1="-278.26" x2="-866.62" y2="-150.29"/>
	<line class="st4" x1="-975.57" y1="-145.86" x2="-743.64" y2="-145.86"/>
</g>
<g>
	<path class="st5" d="M-414.73-272.94"/>
	<line class="st6" x1="-307.41" y1="-281.2" x2="-307.41" y2="-153.52"/>
	<line class="st7" x1="-422.5" y1="-148.96" x2="-177.5" y2="-148.96"/>
	<polygon class="st8" points="-368.91,-451.13 -247.54,-451.13 -205.19,-284.1 -409.64,-284.1 	"/>
</g>
<g>
	<path class="st0" d="M272.83-153.87l3.71-193.65c-50.69-82.82-50.69-82.82-50.69-82.82"/>
	<path class="st0" d="M225.01-433.94c-0.26,0.8-0.59,1.59-0.95,2.4c-1.73,3.81-4.59,7.67-8.46,11.02l-20.92-22.05
		c9.96-8.62,22.71-10.7,28.48-4.61C226.22-443.96,226.7-439.09,225.01-433.94z"/>
	<g>
		<polygon class="st9" points="223.24,-406.44 179.71,-340.21 112.2,-414.34 183.17,-450.45 193.85,-438.72 212.92,-417.78 		"/>
	</g>
	<path class="st0" d="M164.29-353.91c-12.41,11.64-32.02,10.57-43.81-2.4c-11.78-12.96-11.28-32.91,1.13-44.55"/>
	<line class="st10" x1="158.28" y1="-148.96" x2="389.36" y2="-148.96"/>
</g>
<line class="st10" x1="-959.48" y1="402.84" x2="-740.52" y2="402.84"/>
<g>
	<path class="st11" d="M-843.33,233.95c-1.54,0.12-3.1,0.21-4.67,0.21c-1.58,0-3.14-0.09-4.68-0.21H-843.33z"/>
	<path class="st11" d="M-785.97,167.94c0,24.06-12.02,45.11-30,56.7h-64.08c-17.98-11.59-30-32.65-30-56.7
		c0-36.57,27.77-66.2,62.04-66.2C-813.74,101.73-785.97,131.37-785.97,167.94z"/>
	<rect x="-889.54" y="224.64" class="st11" width="79.99" height="9.3"/>
</g>
<line class="st0" x1="-300.35" y1="187.06" x2="-300.35" y2="102.1"/>
<ellipse class="st0" cx="-409.39" cy="289.87" rx="6.4" ry="6.42"/>
<ellipse class="st0" cx="-189.31" cy="290.87" rx="6.4" ry="6.42"/>
<ellipse class="st0" cx="-392.13" cy="290.87" rx="6.4" ry="6.42"/>
<ellipse class="st0" cx="-206.57" cy="289.97" rx="6.4" ry="6.42"/>
<ellipse class="st0" cx="-376.06" cy="289.97" rx="6.4" ry="6.42"/>
<ellipse class="st0" cx="-223.55" cy="290.37" rx="6.4" ry="6.42"/>
<ellipse class="st0" cx="-241.81" cy="291.37" rx="6.4" ry="6.42"/>
<ellipse class="st0" cx="-358.89" cy="290.37" rx="6.4" ry="6.42"/>
<g>
	<line class="st10" x1="-420.18" y1="102.1" x2="-179.82" y2="102.1"/>
	<rect x="-340.74" y="187.06" class="st0" width="81.49" height="8.95"/>
	<g>
		<path class="st0" d="M-209.22,284.27c0-46.43-37.51-84.07-83.79-84.07s-83.79,37.64-83.79,84.07"/>
		<path class="st0" d="M-190.96,284.27c0-46.43-37.51-84.07-83.79-84.07s-83.79,37.64-83.79,84.07"/>
		<path class="st0" d="M-241.46,284.27c0-46.43-37.51-84.07-83.79-84.07s-83.79,37.64-83.79,84.07"/>
		<path class="st0" d="M-223.2,284.27c0-46.43-37.51-84.07-83.79-84.07s-83.79,37.64-83.79,84.07"/>
	</g>
	<ellipse class="st0" cx="-300.35" cy="258.62" rx="18.33" ry="18.39"/>
</g>
<line class="st0" x1="-300.35" y1="206.58" x2="-300.35" y2="235.82"/>
<g>
	<line class="st10" x1="129.39" y1="102.9" x2="369.74" y2="102.9"/>
	<rect x="171.06" y="180.15" class="st12" width="14.82" height="9.84"/>
	<line class="st0" x1="178.47" y1="176.41" x2="178.47" y2="105.64"/>
	<path class="st12" d="M238.19,249.25c0-32.77-26.73-59.34-59.71-59.34s-59.71,26.57-59.71,59.34H238.19z"/>
	<path class="st12" d="M195.67,249.4c0,9.5-7.7,17.2-17.2,17.2s-17.2-7.7-17.2-17.2"/>
	<line class="st0" x1="321.64" y1="176.58" x2="321.64" y2="105.81"/>
	<g>
		<rect x="314.23" y="180.11" class="st13" width="14.82" height="9"/>
		<path class="st13" d="M381.35,295.5c0-58.18-26.73-105.34-59.71-105.34s-59.71,47.16-59.71,105.34H381.35z"/>
	</g>
</g>
</svg>
