<?xml version="1.0" encoding="utf-8"?>
<!-- Generator: Adobe Illustrator 26.0.0, SVG Export Plug-In . SVG Version: 6.00 Build 0)  -->
<svg version="1.1" id="Layer_1" xmlns="http://www.w3.org/2000/svg" xmlns:xlink="http://www.w3.org/1999/xlink" x="0px" y="0px"
	 viewBox="0 0 500 500" style="enable-background:new 0 0 500 500;" xml:space="preserve">
<style type="text/css">
	.st0{fill:none;stroke:#134767;stroke-width:5;stroke-linecap:square;stroke-miterlimit:10;}
	.st1{fill:none;stroke:#134767;stroke-width:4.9611;stroke-miterlimit:10;}
	.st2{fill:none;stroke:#134767;stroke-width:4.9961;stroke-miterlimit:10;}
	.st3{fill:none;stroke:#134767;stroke-width:5.031;stroke-linecap:square;stroke-miterlimit:10;}
	.st4{fill:none;stroke:#134767;stroke-width:5.031;stroke-linecap:round;stroke-miterlimit:10;}
	.st5{fill:none;stroke:#6D6E71;stroke-width:4.8335;stroke-miterlimit:10;}
	.st6{fill:none;stroke:#134767;stroke-width:5.0633;stroke-linecap:square;stroke-miterlimit:10;}
	.st7{fill:none;stroke:#134767;stroke-width:5.2377;stroke-linecap:round;stroke-miterlimit:10;}
	.st8{fill:none;stroke:#134767;stroke-width:5.0633;stroke-miterlimit:10;}
	.st9{fill:none;stroke:#134767;stroke-width:5;stroke-miterlimit:10;}
	.st10{fill:none;stroke:#134767;stroke-width:5;stroke-linecap:round;stroke-miterlimit:10;}
	.st11{fill:none;stroke:#134767;stroke-width:5.552;stroke-linecap:square;stroke-miterlimit:10;}
	.st12{fill:none;stroke:#134767;stroke-width:5;stroke-linecap:round;stroke-linejoin:round;stroke-miterlimit:10;}
	.st13{fill:none;stroke:#134767;stroke-width:4.7815;stroke-linecap:round;stroke-linejoin:round;stroke-miterlimit:10;}
</style>
<line class="st0" x1="-300" y1="229.15" x2="-300" y2="402.84"/>
<g>
	<path class="st1" d="M-1870.21,197.04c0,38.85-42.99,70.34-96.02,70.34s-96.02-31.49-96.02-70.34s42.99-101.21,96.02-101.21
		S-1870.21,158.19-1870.21,197.04z"/>
	<path class="st2" d="M-2059.74,176.74l-11.51-7.91c-18.4-12.65-22.92-37.6-10.09-55.74l0,0c12.83-18.14,38.15-22.59,56.56-9.94
		l11.51,7.91"/>
	<path class="st2" d="M-1873.4,176.74l11.51-7.91c18.4-12.65,22.92-37.6,10.09-55.74v0c-12.83-18.14-38.15-22.59-56.56-9.94
		l-11.51,7.91"/>
	<line class="st3" x1="-1966.62" y1="271.74" x2="-1966.62" y2="399.71"/>
	<line class="st4" x1="-2075.57" y1="404.14" x2="-1843.64" y2="404.14"/>
</g>
<g>
	<path class="st5" d="M-1514.73,277.06"/>
	<line class="st6" x1="-1407.41" y1="268.8" x2="-1407.41" y2="396.48"/>
	<line class="st7" x1="-1522.5" y1="401.04" x2="-1277.5" y2="401.04"/>
	<polygon class="st8" points="-1468.91,98.87 -1347.54,98.87 -1305.19,265.9 -1509.64,265.9 	"/>
</g>
<g>
	<path class="st0" d="M-827.17,396.13l3.71-193.65c-50.69-82.82-50.69-82.82-50.69-82.82"/>
	<path class="st0" d="M-874.99,116.06c-0.26,0.8-0.59,1.59-0.95,2.4c-1.73,3.81-4.59,7.67-8.46,11.02l-20.92-22.05
		c9.96-8.62,22.71-10.7,28.48-4.61C-873.78,106.04-873.3,110.91-874.99,116.06z"/>
	<g>
		<polygon class="st9" points="-876.76,143.56 -920.29,209.79 -987.8,135.66 -916.83,99.55 -906.15,111.28 -887.08,132.22 		"/>
	</g>
	<path class="st0" d="M-935.71,196.09c-12.41,11.64-32.02,10.57-43.81-2.4c-11.78-12.96-11.28-32.91,1.13-44.55"/>
	<line class="st10" x1="-941.72" y1="401.04" x2="-710.64" y2="401.04"/>
</g>
<line class="st10" x1="-409.48" y1="402.84" x2="-190.52" y2="402.84"/>
<g>
	<path class="st11" d="M-293.33,233.95c-1.54,0.12-3.1,0.21-4.67,0.21c-1.58,0-3.14-0.09-4.68-0.21H-293.33z"/>
	<path class="st11" d="M-235.97,167.94c0,24.06-12.02,45.11-30,56.7h-64.08c-17.98-11.59-30-32.65-30-56.7
		c0-36.57,27.77-66.2,62.04-66.2C-263.74,101.73-235.97,131.37-235.97,167.94z"/>
	<rect x="-339.54" y="224.64" class="st11" width="79.99" height="9.3"/>
</g>
<line class="st0" x1="249.65" y1="187.06" x2="249.65" y2="102.1"/>
<ellipse class="st0" cx="140.61" cy="289.87" rx="6.4" ry="6.42"/>
<ellipse class="st0" cx="360.69" cy="290.87" rx="6.4" ry="6.42"/>
<ellipse class="st0" cx="157.87" cy="290.87" rx="6.4" ry="6.42"/>
<ellipse class="st0" cx="343.43" cy="289.97" rx="6.4" ry="6.42"/>
<ellipse class="st0" cx="173.94" cy="289.97" rx="6.4" ry="6.42"/>
<ellipse class="st0" cx="326.45" cy="290.37" rx="6.4" ry="6.42"/>
<ellipse class="st0" cx="308.19" cy="291.37" rx="6.4" ry="6.42"/>
<ellipse class="st0" cx="191.11" cy="290.37" rx="6.4" ry="6.42"/>
<g>
	<line class="st10" x1="129.82" y1="102.1" x2="370.18" y2="102.1"/>
	<rect x="209.26" y="187.06" class="st0" width="81.49" height="8.95"/>
	<g>
		<path class="st0" d="M340.78,284.27c0-46.43-37.51-84.07-83.79-84.07s-83.79,37.64-83.79,84.07"/>
		<path class="st0" d="M359.04,284.27c0-46.43-37.51-84.07-83.79-84.07s-83.79,37.64-83.79,84.07"/>
		<path class="st0" d="M308.54,284.27c0-46.43-37.51-84.07-83.79-84.07s-83.79,37.64-83.79,84.07"/>
		<path class="st0" d="M326.8,284.27c0-46.43-37.51-84.07-83.79-84.07s-83.79,37.64-83.79,84.07"/>
	</g>
	<ellipse class="st0" cx="249.65" cy="258.62" rx="18.33" ry="18.39"/>
</g>
<line class="st0" x1="249.65" y1="206.58" x2="249.65" y2="235.82"/>
<g>
	<line class="st10" x1="679.39" y1="102.9" x2="919.74" y2="102.9"/>
	<rect x="721.06" y="180.15" class="st12" width="14.82" height="9.84"/>
	<line class="st0" x1="728.47" y1="176.41" x2="728.47" y2="105.64"/>
	<path class="st12" d="M788.19,249.25c0-32.77-26.73-59.34-59.71-59.34s-59.71,26.57-59.71,59.34H788.19z"/>
	<path class="st12" d="M745.67,249.4c0,9.5-7.7,17.2-17.2,17.2s-17.2-7.7-17.2-17.2"/>
	<line class="st0" x1="871.64" y1="176.58" x2="871.64" y2="105.81"/>
	<g>
		<rect x="864.23" y="180.11" class="st13" width="14.82" height="9"/>
		<path class="st13" d="M931.35,295.5c0-58.18-26.73-105.34-59.71-105.34c-32.98,0-59.71,47.16-59.71,105.34H931.35z"/>
	</g>
</g>
</svg>
