<?xml version="1.0" encoding="utf-8"?>
<!-- Generator: Adobe Illustrator 26.0.0, SVG Export Plug-In . SVG Version: 6.00 Build 0)  -->
<svg version="1.1" id="Layer_1" xmlns="http://www.w3.org/2000/svg" xmlns:xlink="http://www.w3.org/1999/xlink" x="0px" y="0px"
	 viewBox="0 0 500 500" style="enable-background:new 0 0 500 500;" xml:space="preserve">
<style type="text/css">
	.st0{fill:#101111;}
	.st1{fill:#E9C369;}
</style>
<path class="st0" d="M470,500H30c-16.57,0-30-13.43-30-30V30C0,13.43,13.43,0,30,0h440c16.57,0,30,13.43,30,30v440
	C500,486.57,486.57,500,470,500z"/>
<g>
	<path id="lamp" class="st1" d="M96.57,366.76l33.15-32.41l25.44,24.93l-33.1,32.41L96.57,366.76z M231.73,435.75v-52.36h36.55
		v52.36H231.73z M105.06,223.81v35.74H50.67v-35.74H105.06z M304.84,149.85c16.28,9.27,29.88,22.42,39.54,38.23
		c9.91,16.03,15.06,34.45,14.88,53.18c0.45,28.3-11.09,55.52-31.88,75.21c-20.14,20.33-47.98,31.61-76.93,31.17
		c-28.94,0.43-56.78-10.85-76.93-31.17c-20.8-19.68-32.34-46.9-31.9-75.19c-0.37-37.92,20.51-72.99,54.41-91.41V64.25h108.81V149.85
		z M394.94,223.81h54.39v35.74h-54.39V223.81z M344.78,359.27l25.5-24.15l33.15,31.58l-25.5,24.93L344.78,359.27z"/>
</g>
</svg>
