<?xml version="1.0" encoding="utf-8"?>
<!-- Generator: Adobe Illustrator 25.4.1, SVG Export Plug-In . SVG Version: 6.00 Build 0)  -->
<svg version="1.1" xmlns="http://www.w3.org/2000/svg" xmlns:xlink="http://www.w3.org/1999/xlink" x="0px" y="0px"
	 viewBox="0 0 126.33 54.37" style="enable-background:new 0 0 126.33 54.37;" xml:space="preserve">
<style type="text/css">
	.st0{fill:#0F1010;}
	.st1{fill:#FFFFFF;}
	.st2{font-family:'PlayfairDisplay-Regular';}
	.st3{font-size:24px;}
	.st4{fill:#E9C46A;}
</style>
<g id="Layer_1">
	<rect class="st0" width="126.33" height="54.55"/>
	<rect x="175.05" y="95.54" class="st0" width="251.87" height="100.81"/>
	<text transform="matrix(1.1253 0 0 1 44.7595 49.0599)" class="st1 st2 st3">House</text>
	<path id="lamp" class="st4" d="M23.35,45.35l1.75-1.74l1.34,1.34l-1.74,1.74L23.35,45.35z M30.46,49.06v-2.82h1.92v2.82H30.46z
		 M23.8,37.65v1.92h-2.86v-1.92H23.8z M34.31,33.67c0.86,0.5,1.57,1.21,2.08,2.06c0.52,0.86,0.79,1.85,0.78,2.86
		c0.02,1.52-0.58,2.99-1.68,4.05c-1.06,1.09-2.53,1.7-4.05,1.68c-1.52,0.02-2.99-0.58-4.05-1.68c-1.09-1.06-1.7-2.52-1.68-4.05
		c-0.02-2.04,1.08-3.93,2.86-4.92v-4.61h5.73V33.67z M39.05,37.65h2.86v1.92h-2.86V37.65z M36.41,44.94l1.34-1.3l1.74,1.7
		l-1.34,1.34L36.41,44.94z"/>
</g>
<g id="Layer_2">
	<text transform="matrix(1 0 0 1 4.7879 22.1288)" class="st1 st2 st3">Lighting</text>
</g>
</svg>
